<svg width="45" height="45" viewBox="0 0 45 45" fill="none" xmlns="http://www.w3.org/2000/svg">
<circle cx="22.5" cy="22.5" r="22.5" fill="#1F4373"/>
<path d="M22.5 8.75C17.1788 8.75 12.875 13.0538 12.875 18.375C12.875 25.5938 22.5 36.25 22.5 36.25C22.5 36.25 32.125 25.5938 32.125 18.375C32.125 13.0538 27.8212 8.75 22.5 8.75ZM22.5 21.8125C21.5883 21.8125 20.714 21.4503 20.0693 20.8057C19.4247 20.161 19.0625 19.2867 19.0625 18.375C19.0625 17.4633 19.4247 16.589 20.0693 15.9443C20.714 15.2997 21.5883 14.9375 22.5 14.9375C23.4117 14.9375 24.286 15.2997 24.9307 15.9443C25.5753 16.589 25.9375 17.4633 25.9375 18.375C25.9375 19.2867 25.5753 20.161 24.9307 20.8057C24.286 21.4503 23.4117 21.8125 22.5 21.8125Z" fill="white"/>
</svg>
