<svg width="126" height="126" viewBox="0 0 126 126" fill="none" xmlns="http://www.w3.org/2000/svg">
<g clip-path="url(#clip0_320_845)">
<path d="M63 0.5C28.625 0.5 0.5 28.625 0.5 63C0.5 97.375 28.625 125.5 63 125.5C97.375 125.5 125.5 97.375 125.5 63C125.5 28.625 97.375 0.5 63 0.5ZM63 113C35.4375 113 13 90.5625 13 63C13 35.4375 35.4375 13 63 13C90.5625 13 113 35.4375 113 63C113 90.5625 90.5625 113 63 113ZM91.6875 35.375L50.5 76.5625L34.3125 60.4375L25.5 69.25L50.5 94.25L100.5 44.25L91.6875 35.375Z" fill="#155821"/>
</g>
<defs>
<clipPath id="clip0_320_845">
<rect width="126" height="126" fill="white"/>
</clipPath>
</defs>
</svg>
