<svg width="215" height="115" viewBox="0 0 215 115" fill="none" xmlns="http://www.w3.org/2000/svg">
<g clip-path="url(#clip0_52_1330)">
<path d="M0.40448 78.7065V45.3209H8.10636C13.7419 45.3209 16.5596 48.5875 16.5596 55.1206C16.5596 57.0893 16.2539 58.7622 15.6437 60.1381C15.0335 61.514 13.9599 62.6229 12.4269 63.4676L17.5921 78.7065H12.5202L8.05837 64.452H5.19399V78.7065H0.40448ZM5.19399 49.8224V60.2312H7.91851C8.76315 60.2312 9.4364 60.1135 9.93825 59.8794C10.4387 59.6453 10.8309 59.3099 11.112 58.8718C11.3629 58.435 11.5343 57.8956 11.6289 57.2535C11.7235 56.6128 11.7701 55.8708 11.7701 55.0261C11.7701 54.1814 11.7235 53.4394 11.6289 52.7987C11.5343 52.1579 11.3464 51.6035 11.0654 51.1339C10.4703 50.2591 9.34316 49.821 7.68404 49.821H5.19536L5.19399 49.8224Z" fill="white"/>
<path d="M25.2954 78.7065L32.7628 45.3209H36.7543L44.2217 78.7065H39.4322L38.024 71.5327H31.4959L30.0877 78.7065H25.2982H25.2954ZM37.13 67.0313L34.7826 54.9344H34.6879L32.3405 67.0313H37.1314H37.13Z" fill="white"/>
<path d="M53.7542 78.7065V45.3209H58.545V78.7065H53.7542Z" fill="white"/>
<path d="M70.0491 78.7065V45.3209H74.6508L81.8823 65.4363H81.9769V45.3209H86.7664V78.7065H82.258L74.9318 58.6376H74.8386V78.7065H70.0477H70.0491Z" fill="white"/>
<path d="M102.594 78.7065V64.593L96.0192 45.3209H101.091L104.941 58.5911H105.036L108.886 45.3209H113.958L107.383 64.593V78.7065H102.593H102.594Z" fill="white"/>
<path d="M123.397 78.7065V45.3209H130.489C133.244 45.3209 135.333 46.0712 136.758 47.5716C138.183 49.0721 138.894 51.1982 138.894 53.9487V69.5626C138.894 72.6882 138.135 74.995 136.617 76.4791C135.098 77.9645 132.915 78.7065 130.065 78.7065H123.397ZM128.188 49.8224V74.2051H130.396C131.742 74.2051 132.697 73.8697 133.26 73.1975C133.824 72.5253 134.106 71.4711 134.106 70.0322V53.9487C134.106 52.6357 133.84 51.6199 133.308 50.9012C132.775 50.1824 131.805 49.8224 130.396 49.8224H128.188Z" fill="white"/>
<path d="M147.723 78.7065L155.191 45.3209H159.182L166.65 78.7065H161.859L160.451 71.5327H153.922L152.514 78.7065H147.723ZM159.558 67.0313L157.211 54.9344H157.117L154.77 67.0313H159.559H159.558Z" fill="white"/>
<path d="M177.921 78.7065V64.593L171.346 45.3209H176.418L180.268 58.5911H180.361L184.212 45.3209H189.284L182.709 64.593V78.7065H177.919H177.921Z" fill="white"/>
<path d="M214.223 54.9331H209.433V53.8543C209.433 52.7604 209.175 51.8144 208.658 51.0176C208.141 50.2208 207.273 49.8224 206.052 49.8224C205.395 49.8224 204.862 49.9484 204.456 50.1975C204.048 50.4481 203.719 50.7602 203.47 51.1353C203.219 51.5419 203.047 52.0033 202.953 52.5181C202.858 53.0328 202.812 53.5736 202.812 54.1363C202.812 54.7921 202.835 55.3397 202.882 55.7778C202.928 56.2159 203.046 56.606 203.234 56.9497C203.422 57.2947 203.696 57.5904 204.055 57.8409C204.415 58.0915 204.908 58.342 205.535 58.5912L209.197 60.0451C210.261 60.4517 211.122 60.9281 211.78 61.4757C212.437 62.0234 212.954 62.6559 213.33 63.3746C213.674 64.1248 213.909 64.9764 214.035 65.9306C214.159 66.8849 214.223 67.9705 214.223 69.189C214.223 70.5963 214.081 71.901 213.8 73.1044C213.519 74.3078 213.064 75.3319 212.439 76.1752C211.782 77.0514 210.919 77.7387 209.855 78.2384C208.79 78.7381 207.491 78.9886 205.957 78.9886C204.798 78.9886 203.718 78.7846 202.717 78.3794C201.715 77.9741 200.854 77.4101 200.134 76.6913C199.414 75.9726 198.842 75.1361 198.42 74.1832C197.997 73.2304 197.786 72.1899 197.786 71.0646V69.2834H202.576V70.7839C202.576 71.6587 202.834 72.4487 203.35 73.1524C203.867 73.856 204.735 74.2079 205.957 74.2079C206.77 74.2079 207.405 74.0901 207.859 73.856C208.313 73.6219 208.665 73.2865 208.916 72.8484C209.167 72.4117 209.315 71.8874 209.362 71.2781C209.408 70.6689 209.432 69.9885 209.432 69.2382C209.432 68.3634 209.4 67.6447 209.338 67.082C209.275 66.5193 209.151 66.0662 208.963 65.7225C208.743 65.3789 208.454 65.0982 208.093 64.8778C207.733 64.6601 207.256 64.4247 206.661 64.1741L203.233 62.7681C201.166 61.9234 199.781 60.8063 199.077 59.4153C198.372 58.0244 198.019 56.2816 198.019 54.1869C198.019 52.937 198.191 51.7487 198.536 50.6233C198.88 49.4979 199.397 48.53 200.086 47.7168C200.743 46.905 201.58 46.256 202.598 45.7714C203.615 45.2868 204.829 45.0444 206.237 45.0444C207.426 45.0444 208.514 45.2635 209.5 45.7002C210.486 46.1383 211.339 46.716 212.06 47.4348C213.5 48.9353 214.22 50.6548 214.22 52.592V54.9358L214.223 54.9331Z" fill="white"/>
<path d="M36.5692 102.26H40.0232C40.3989 102.26 40.7609 102.295 41.1092 102.368C41.4574 102.462 41.8112 102.655 42.1691 102.947C42.4694 103.167 42.7134 103.481 42.8999 103.89C43.096 104.286 43.1934 104.753 43.1934 105.292C43.1934 106.019 42.9452 106.682 42.4474 107.28C41.9374 107.908 41.1914 108.233 40.2097 108.249H38.0117V112.084H36.5692V102.261V102.26ZM38.0117 106.849H40.1535C40.691 106.839 41.0941 106.668 41.3656 106.334C41.6234 106.009 41.7522 105.648 41.7522 105.251C41.7522 104.921 41.7001 104.645 41.5946 104.419C41.4849 104.216 41.3327 104.056 41.1366 103.938C40.839 103.744 40.4949 103.652 40.1014 103.66H38.0117V106.849Z" fill="white"/>
<path d="M44.6385 105.09H46.0001V109.258C46.0001 109.731 46.129 110.099 46.3854 110.364C46.6377 110.63 46.9613 110.763 47.3535 110.763C47.7456 110.763 48.0665 110.63 48.3147 110.364C48.567 110.099 48.6945 109.731 48.6945 109.258V105.09H50.0561V112.083H48.6945V111.335H48.6684C48.2201 111.888 47.6346 112.163 46.912 112.163C46.3498 112.154 45.8424 111.943 45.39 111.531C44.8977 111.127 44.6481 110.531 44.6385 109.742V105.088V105.09Z" fill="white"/>
<path d="M52.2595 109.947C52.8149 110.545 53.5306 110.844 54.4095 110.844C54.8031 110.844 55.1239 110.766 55.3735 110.608C55.623 110.451 55.7464 110.23 55.7464 109.948C55.7464 109.696 55.6724 109.521 55.5243 109.422C55.3721 109.32 55.1678 109.262 54.9155 109.254L53.7103 109.146C53.1385 109.093 52.6736 108.894 52.3158 108.553C51.9497 108.22 51.7618 107.756 51.7522 107.158C51.7604 106.439 52.0073 105.9 52.4913 105.541C52.9616 105.183 53.5594 105.002 54.2834 105.002C54.5974 105.002 54.8785 105.022 55.1267 105.062C55.3749 105.107 55.608 105.17 55.826 105.251C56.2442 105.426 56.6199 105.662 56.9517 105.957L56.1071 106.975C55.8452 106.78 55.5682 106.619 55.2748 106.491C54.9868 106.378 54.655 106.322 54.2793 106.322C53.8515 106.322 53.5526 106.401 53.3825 106.557C53.2029 106.715 53.1138 106.917 53.1138 107.164C53.1042 107.321 53.1728 107.458 53.3167 107.576C53.4484 107.706 53.6787 107.789 54.0105 107.825L55.1363 107.912C55.8438 107.966 56.3539 108.186 56.6692 108.574C56.9613 108.952 57.108 109.431 57.108 110.011C57.0998 110.69 56.831 111.215 56.3045 111.583C55.7807 111.961 55.1116 112.154 54.2971 112.163C53.1906 112.163 52.1937 111.746 51.3093 110.911L52.2609 109.947H52.2595Z" fill="white"/>
<path d="M58.6945 102.26H60.056V105.83H60.0821C60.5305 105.277 61.1187 105.002 61.8454 105.002C62.4076 105.002 62.9204 105.206 63.3866 105.615C63.8473 106.029 64.09 106.635 64.112 107.435V112.084H62.7504V107.915C62.7504 107.425 62.6242 107.051 62.3706 106.795C62.1224 106.534 61.8015 106.404 61.4094 106.404C61.0172 106.404 60.695 106.534 60.4413 106.795C60.1836 107.051 60.056 107.425 60.056 107.915V112.084H58.6945V102.261V102.26Z" fill="white"/>
<path d="M66.1578 102.26H67.5194V103.66H66.1578V102.26ZM66.1578 105.089H67.5194V112.083H66.1578V105.089Z" fill="white"/>
<path d="M69.4294 105.089H70.791V105.83H70.817C71.2654 105.277 71.8536 105.002 72.5803 105.002C73.1425 105.002 73.6553 105.206 74.1215 105.615C74.5823 106.029 74.825 106.635 74.8469 107.435V112.084H73.4853V107.915C73.4853 107.425 73.3592 107.051 73.1055 106.795C72.8573 106.534 72.5365 106.404 72.1443 106.404C71.7522 106.404 71.4299 106.534 71.1763 106.795C70.9185 107.051 70.791 107.425 70.791 107.915V112.084H69.4294V105.091V105.089Z" fill="white"/>
<path d="M80.6647 111.353C80.2164 111.876 79.6322 112.146 78.9151 112.163C78.475 112.154 78.1102 112.058 77.8182 111.873C77.5138 111.698 77.2807 111.509 77.1189 111.306C76.9406 111.078 76.8117 110.796 76.7336 110.463C76.6513 110.134 76.6102 109.51 76.6102 108.589C76.6102 107.667 76.6513 107.013 76.7336 106.68C76.8117 106.352 76.9406 106.075 77.1189 105.851C77.2807 105.632 77.5124 105.436 77.8182 105.261C78.1102 105.095 78.475 105.009 78.9151 104.999C79.5897 104.999 80.1739 105.276 80.6647 105.827V105.087H82.0263V111.911C82.0085 112.963 81.715 113.735 81.1446 114.229C80.5701 114.737 79.8832 114.99 79.0824 114.99C78.1637 114.973 77.3808 114.582 76.7322 113.82L77.7908 112.953C77.9649 113.12 78.1651 113.263 78.3913 113.38C78.6217 113.512 78.8616 113.582 79.1098 113.59C79.576 113.59 79.9504 113.457 80.2328 113.19C80.5112 112.919 80.6551 112.545 80.6634 112.066V111.349L80.6647 111.353ZM77.9718 108.593C77.9718 109.13 77.9896 109.499 78.0239 109.702C78.054 109.914 78.1267 110.089 78.2391 110.229C78.331 110.355 78.4695 110.47 78.6573 110.574C78.8356 110.7 79.0577 110.763 79.3237 110.763C79.5897 110.763 79.8119 110.7 79.9901 110.574C80.1684 110.47 80.3041 110.355 80.396 110.229C80.5098 110.089 80.5852 109.914 80.625 109.702C80.651 109.499 80.6647 109.13 80.6647 108.593C80.6647 108.056 80.651 107.669 80.625 107.458C80.5852 107.246 80.5098 107.075 80.396 106.945C80.3041 106.819 80.1697 106.694 79.9901 106.572C79.8119 106.468 79.5897 106.412 79.3237 106.404C79.0577 106.413 78.8356 106.47 78.6573 106.572C78.4695 106.694 78.331 106.817 78.2391 106.945C78.1253 107.076 78.054 107.247 78.0239 107.458C77.9896 107.67 77.9718 108.048 77.9718 108.593Z" fill="white"/>
<path d="M87.4191 102.961H88.7807V105.089H89.7748V106.167H88.7807V110.244C88.7711 110.598 88.9329 110.772 89.2647 110.763H89.7748V112.083H89.0632C88.5846 112.083 88.1925 111.931 87.8894 111.625C87.5768 111.334 87.4191 110.912 87.4191 110.36V106.167H86.7349V105.089H87.4191V102.961Z" fill="white"/>
<path d="M91.1776 102.26H92.5391V105.83H92.5652C93.0136 105.277 93.6018 105.002 94.3285 105.002C94.8907 105.002 95.4035 105.206 95.8697 105.615C96.3304 106.029 96.5731 106.635 96.595 107.435V112.084H95.2335V107.915C95.2335 107.425 95.1073 107.051 94.8537 106.795C94.6055 106.534 94.2846 106.404 93.8925 106.404C93.5003 106.404 93.1781 106.534 92.9244 106.795C92.6666 107.051 92.5391 107.425 92.5391 107.915V112.084H91.1776V102.261V102.26Z" fill="white"/>
<path d="M99.624 109.117C99.624 109.678 99.7803 110.106 100.094 110.399C100.386 110.696 100.77 110.844 101.245 110.844C101.799 110.844 102.294 110.616 102.73 110.163L103.717 111.032C103.024 111.795 102.21 112.173 101.273 112.163C100.916 112.163 100.567 112.11 100.229 112.002C100.059 111.943 99.8927 111.865 99.7323 111.766C99.5623 111.681 99.4032 111.576 99.2551 111.45C98.9672 111.19 98.7341 110.826 98.5558 110.359C98.3597 109.91 98.2624 109.325 98.2624 108.608C98.2624 107.89 98.3474 107.342 98.5174 106.883C98.6875 106.416 98.9055 106.048 99.1701 105.778C99.4402 105.504 99.7433 105.307 100.078 105.185C100.408 105.063 100.736 105.003 101.058 105.003C101.833 105.013 102.488 105.276 103.024 105.792C103.569 106.317 103.846 107.04 103.854 107.962V109.12H99.6226L99.624 109.117ZM102.492 107.959C102.475 107.413 102.333 106.999 102.067 106.72C101.806 106.453 101.47 106.32 101.058 106.32C100.647 106.32 100.311 106.453 100.049 106.72C99.7912 106.999 99.65 107.413 99.6226 107.959H102.491H102.492Z" fill="white"/>
<path d="M115.372 109.339C115.162 110.249 114.763 110.949 114.175 111.438C113.569 111.922 112.852 112.165 112.023 112.165C111.275 112.147 110.65 111.958 110.148 111.599C109.638 111.253 109.267 110.853 109.037 110.4C108.967 110.252 108.904 110.11 108.848 109.976C108.796 109.836 108.752 109.661 108.718 109.45C108.652 109.054 108.62 108.296 108.62 107.173C108.62 106.05 108.653 105.269 108.718 104.883C108.788 104.497 108.894 104.184 109.038 103.946C109.269 103.493 109.639 103.088 110.149 102.733C110.65 102.375 111.275 102.19 112.025 102.18C112.945 102.19 113.694 102.469 114.274 103.021C114.854 103.577 115.218 104.265 115.372 105.085H113.84C113.722 104.69 113.508 104.351 113.199 104.072C112.875 103.807 112.483 103.67 112.021 103.66C111.681 103.67 111.389 103.74 111.143 103.87C110.895 104.005 110.693 104.174 110.541 104.376C110.353 104.588 110.229 104.861 110.168 105.193C110.098 105.544 110.064 106.204 110.064 107.172C110.064 108.14 110.098 108.794 110.168 109.136C110.23 109.479 110.353 109.755 110.541 109.967C110.695 110.17 110.895 110.334 111.143 110.46C111.387 110.608 111.681 110.683 112.021 110.683C112.832 110.683 113.44 110.236 113.842 109.34H115.372V109.339Z" fill="white"/>
<path d="M116.171 108.579C116.171 107.841 116.23 107.274 116.348 106.879C116.47 106.491 116.658 106.166 116.91 105.9C117.098 105.667 117.359 105.46 117.695 105.277C118.027 105.103 118.45 105.011 118.97 105.002C119.506 105.011 119.939 105.103 120.271 105.278C120.597 105.463 120.851 105.671 121.029 105.905C121.298 106.171 121.49 106.495 121.603 106.883C121.711 107.279 121.766 107.844 121.766 108.581C121.766 109.317 121.711 109.878 121.603 110.264C121.489 110.651 121.298 110.986 121.028 111.268C120.94 111.371 120.835 111.472 120.707 111.571C120.593 111.683 120.448 111.78 120.27 111.861C119.939 112.054 119.506 112.155 118.97 112.163C118.452 112.154 118.027 112.054 117.696 111.861C117.36 111.686 117.1 111.488 116.912 111.268C116.659 110.985 116.472 110.651 116.35 110.264C116.232 109.878 116.173 109.317 116.173 108.581L116.171 108.579ZM120.403 108.593C120.403 108.093 120.381 107.728 120.337 107.498C120.293 107.277 120.204 107.083 120.068 106.916C119.968 106.758 119.82 106.634 119.623 106.543C119.435 106.449 119.217 106.401 118.967 106.401C118.735 106.401 118.522 106.449 118.325 106.543C118.138 106.634 117.985 106.757 117.867 106.914C117.75 107.081 117.665 107.274 117.612 107.496C117.56 107.726 117.534 108.086 117.534 108.578C117.534 109.069 117.56 109.421 117.612 109.646C117.665 109.876 117.75 110.078 117.867 110.254C117.985 110.389 118.138 110.508 118.325 110.612C118.522 110.711 118.735 110.761 118.967 110.761C119.215 110.761 119.435 110.712 119.623 110.612C119.819 110.508 119.968 110.389 120.068 110.254C120.204 110.078 120.293 109.876 120.337 109.646C120.381 109.42 120.403 109.069 120.403 108.591V108.593Z" fill="white"/>
<path d="M123.363 105.089H124.727V105.83H124.753C125.217 105.277 125.827 105.002 126.583 105.002C127.068 105.011 127.46 105.094 127.756 105.251C128.048 105.426 128.316 105.648 128.56 105.918C129.108 105.298 129.845 104.992 130.766 105.002C131.346 105.002 131.877 105.206 132.358 105.615C132.835 106.029 133.082 106.635 133.1 107.435V112.084H131.737V107.915C131.737 107.425 131.607 107.051 131.346 106.795C131.086 106.534 130.748 106.404 130.337 106.404C129.926 106.404 129.587 106.534 129.321 106.795C129.051 107.051 128.916 107.425 128.916 107.915V112.084H127.555V107.915C127.555 107.425 127.425 107.051 127.164 106.795C126.898 106.534 126.559 106.404 126.148 106.404C125.737 106.404 125.399 106.534 125.139 106.795C124.865 107.051 124.727 107.425 124.727 107.915V112.084H123.364V105.091L123.363 105.089Z" fill="white"/>
<path d="M135.409 106.167H134.721V105.089H135.409V104.167C135.409 103.501 135.587 103.013 135.945 102.698C136.293 102.406 136.731 102.26 137.259 102.26H138.14V103.579H137.361C136.95 103.566 136.754 103.76 136.772 104.161V105.088H138.14V106.166H136.772V112.081H135.41V106.166L135.409 106.167Z" fill="white"/>
<path d="M138.694 108.579C138.694 107.841 138.753 107.274 138.871 106.879C138.993 106.491 139.181 106.166 139.433 105.9C139.621 105.667 139.882 105.46 140.218 105.277C140.549 105.103 140.973 105.011 141.493 105.002C142.029 105.011 142.462 105.103 142.794 105.278C143.12 105.463 143.374 105.671 143.552 105.905C143.821 106.171 144.013 106.495 144.125 106.883C144.234 107.279 144.289 107.844 144.289 108.581C144.289 109.317 144.234 109.878 144.125 110.264C144.012 110.651 143.821 110.986 143.551 111.268C143.463 111.371 143.358 111.472 143.23 111.571C143.116 111.683 142.971 111.78 142.793 111.861C142.462 112.054 142.029 112.155 141.493 112.163C140.974 112.154 140.549 112.054 140.219 111.861C139.883 111.686 139.623 111.488 139.435 111.268C139.182 110.985 138.995 110.651 138.872 110.264C138.755 109.878 138.696 109.317 138.696 108.581L138.694 108.579ZM142.926 108.593C142.926 108.093 142.904 107.728 142.86 107.498C142.816 107.277 142.727 107.083 142.591 106.916C142.491 106.758 142.343 106.634 142.145 106.543C141.958 106.449 141.74 106.401 141.49 106.401C141.258 106.401 141.044 106.449 140.848 106.543C140.66 106.634 140.508 106.757 140.39 106.914C140.272 107.081 140.187 107.274 140.135 107.496C140.083 107.726 140.057 108.086 140.057 108.578C140.057 109.069 140.083 109.421 140.135 109.646C140.187 109.876 140.272 110.078 140.39 110.254C140.508 110.389 140.66 110.508 140.848 110.612C141.044 110.711 141.258 110.761 141.49 110.761C141.738 110.761 141.958 110.712 142.145 110.612C142.342 110.508 142.491 110.389 142.591 110.254C142.727 110.078 142.816 109.876 142.86 109.646C142.904 109.42 142.926 109.069 142.926 108.591V108.593Z" fill="white"/>
<path d="M145.941 105.089H147.302V105.83H147.331C147.78 105.277 148.369 105.002 149.097 105.002C149.642 105.011 150.117 105.189 150.522 105.539L149.528 106.754C149.24 106.52 148.941 106.402 148.631 106.402C148.283 106.402 147.984 106.519 147.734 106.753C147.455 106.983 147.311 107.354 147.302 107.866V112.083H145.941V105.089Z" fill="white"/>
<path d="M151.401 102.961H152.762V105.089H153.757V106.167H152.762V110.244C152.753 110.598 152.915 110.772 153.246 110.763H153.757V112.083H153.045C152.566 112.083 152.174 111.931 151.87 111.625C151.557 111.334 151.399 110.912 151.399 110.36V106.167H150.715V105.089H151.399V102.961H151.401Z" fill="white"/>
<path d="M158.013 110.849L162.333 103.579H158.048V102.26H164.098V103.38L159.624 110.682H164.098V112.083H158.013V110.849Z" fill="white"/>
<path d="M165.307 108.579C165.307 107.841 165.366 107.274 165.484 106.879C165.606 106.491 165.794 106.166 166.046 105.9C166.234 105.667 166.495 105.46 166.831 105.277C167.162 105.103 167.586 105.011 168.106 105.002C168.642 105.011 169.075 105.103 169.407 105.278C169.733 105.463 169.987 105.671 170.165 105.905C170.434 106.171 170.626 106.495 170.738 106.883C170.847 107.279 170.902 107.844 170.902 108.581C170.902 109.317 170.847 109.878 170.738 110.264C170.625 110.651 170.434 110.986 170.164 111.268C170.076 111.371 169.971 111.472 169.843 111.571C169.729 111.683 169.584 111.78 169.406 111.861C169.075 112.054 168.642 112.155 168.106 112.163C167.588 112.154 167.162 112.054 166.832 111.861C166.496 111.686 166.236 111.488 166.048 111.268C165.795 110.985 165.608 110.651 165.486 110.264C165.368 109.878 165.309 109.317 165.309 108.581L165.307 108.579ZM169.539 108.593C169.539 108.093 169.517 107.728 169.473 107.498C169.429 107.277 169.34 107.083 169.204 106.916C169.104 106.758 168.956 106.634 168.759 106.543C168.571 106.449 168.353 106.401 168.103 106.401C167.871 106.401 167.657 106.449 167.461 106.543C167.274 106.634 167.121 106.757 167.003 106.914C166.885 107.081 166.8 107.274 166.748 107.496C166.696 107.726 166.67 108.086 166.67 108.578C166.67 109.069 166.696 109.421 166.748 109.646C166.8 109.876 166.885 110.078 167.003 110.254C167.121 110.389 167.274 110.508 167.461 110.612C167.657 110.711 167.871 110.761 168.103 110.761C168.351 110.761 168.571 110.712 168.759 110.612C168.955 110.508 169.104 110.389 169.204 110.254C169.34 110.078 169.429 109.876 169.473 109.646C169.517 109.42 169.539 109.069 169.539 108.591V108.593Z" fill="white"/>
<path d="M172.554 105.089H173.916V105.83H173.942C174.39 105.277 174.978 105.002 175.705 105.002C176.267 105.002 176.78 105.206 177.246 105.615C177.707 106.029 177.95 106.635 177.971 107.435V112.084H176.61V107.915C176.61 107.425 176.484 107.051 176.23 106.795C175.982 106.534 175.661 106.404 175.269 106.404C174.877 106.404 174.555 106.534 174.301 106.795C174.043 107.051 173.916 107.425 173.916 107.915V112.084H172.554V105.091V105.089Z" fill="white"/>
<path d="M181 109.117C181 109.678 181.157 110.106 181.471 110.399C181.763 110.696 182.147 110.844 182.621 110.844C183.175 110.844 183.67 110.616 184.106 110.163L185.093 111.032C184.401 111.795 183.586 112.173 182.65 112.163C182.292 112.163 181.944 112.11 181.605 112.002C181.435 111.943 181.269 111.865 181.109 111.766C180.939 111.681 180.78 111.576 180.632 111.45C180.344 111.19 180.11 110.826 179.932 110.359C179.736 109.91 179.639 109.325 179.639 108.608C179.639 107.89 179.724 107.342 179.894 106.883C180.064 106.416 180.282 106.048 180.547 105.778C180.817 105.504 181.12 105.307 181.454 105.185C181.785 105.063 182.112 105.003 182.435 105.003C183.209 105.013 183.865 105.276 184.401 105.792C184.945 106.317 185.222 107.04 185.23 107.962V109.12H180.999L181 109.117ZM183.869 107.959C183.851 107.413 183.71 106.999 183.444 106.72C183.182 106.453 182.846 106.32 182.435 106.32C182.023 106.32 181.687 106.453 181.425 106.72C181.168 106.999 181.025 107.413 180.999 107.959H183.867H183.869Z" fill="white"/>
<path fill-rule="evenodd" clip-rule="evenodd" d="M34.7154 40.9003C38.1378 40.454 43.362 39.3423 43.6965 39.0644C65.697 21.0039 41.1174 48.9955 65.2802 29.2483C75.5901 20.8246 71.903 24.3759 80.0025 31.2978C82.8655 33.7498 85.963 27.292 83.0177 22.1293C82.9313 21.9801 89.0756 14.6392 89.1633 14.5803C89.0893 14.019 91.5505 26.6992 91.423 17.9181C91.423 17.8551 93.1973 11.7478 94.3244 11.6752C96.761 11.5192 93.296 9.341 97.4836 6.72749C98.4914 6.10047 99.8818 2.91469 100.127 2.29178C100.168 2.35475 106.532 8.04999 107.499 9.22053C108.549 10.4883 114.13 11.7834 113.923 16.2355C113.912 16.482 115.978 20.9273 115.846 23.293C115.735 25.3178 121.357 27.7314 123.417 32.8215C126.056 39.3451 122.704 26.602 125.403 30.7091C127.6 34.0578 129.149 32.8462 132.834 38.2813C133.241 38.8768 134.257 40.2828 134.895 40.8989H135.428C135.386 40.6005 135.205 40.0501 134.828 39.1602C134.216 37.7159 133.558 32.3602 132.758 31.8673C131.384 31.0253 126.09 27.5904 126.108 26.4828C126.195 21.1709 133.03 30.271 131.224 26.5212C127.763 19.3364 129.281 24.0035 127.356 22.948C128.232 21.8431 127.638 21.1299 127.883 20.4577C129.206 20.0182 129.432 20.6548 126.366 17.7401C123.105 14.6447 127.35 13.225 125.578 9.32184C124.819 7.65707 127.597 7.81589 129.473 9.33553C130.436 10.1186 137.515 13.2277 142.154 15.1389C145.833 19.4295 150.183 22.2922 155.206 23.7297C151.375 21.5858 148.232 19.1968 145.778 16.5586C145.953 16.6175 146.081 16.6517 146.149 16.6654C151.583 17.5553 150.234 18.5492 153.464 20.3536C155.539 20.6343 159.86 25.7901 165.765 27.2824C168.889 28.0751 172.115 33.6703 175.483 36.0703C181.864 40.6101 177.509 38.2827 184.486 40.3157C185.173 40.517 185.754 40.71 186.267 40.8976H188.716C184.94 39.6065 182.58 36.3756 179.884 35.4433C174.575 33.6156 171.874 29.6645 168.44 25.7901C164.815 21.6967 159.668 22.1402 157.786 19.8662C156.493 18.3014 148.937 14.2874 146.865 13.6097C146.813 13.5618 146.679 13.533 146.592 13.4742C146.31 13.2839 146.173 13.2839 145.967 13.1702C145.494 12.9005 145.353 13.1771 144.841 13.1661C144.649 13.1661 144.002 12.7581 143.981 12.702C143.925 12.6705 143.674 12.5665 143.639 12.5391C143.316 12.2694 142.47 11.6698 142.071 11.6287C141.788 11.6013 141.286 11.2618 141.079 11.1961C140.527 11.0153 140.363 10.6033 139.575 10.4691C138.957 10.3651 138.164 10.1611 137.625 9.83523C137.632 9.76952 131.069 7.93773 130.713 7.84463C130.648 7.83094 130.497 7.76797 130.304 7.68172C128.93 6.14017 126.701 5.82529 124.972 4.856C124.175 4.41243 121.021 6.09225 119.908 6.81237C119.324 7.19297 119.011 7.18612 118.628 7.50785C118.394 7.70499 116.72 8.44291 116.45 8.20743C116.214 7.99934 116.369 8.0719 116.132 8.02124C115.154 7.8063 115.365 8.3635 114.892 8.42922C114.049 8.54422 114.408 8.6688 113.979 8.81666C113.27 9.06993 113.709 9.24654 112.964 9.23285C112.392 8.37446 110.773 8.13487 110.015 7.00267C109.847 6.7494 108.43 5.48576 107.976 5.47618C107.404 5.46934 105.775 3.79362 104.862 3.49243C104.854 3.48833 103.79 2.74082 103.732 2.69291C103.724 2.68606 102.922 2.33285 102.708 2.13844C102.42 1.87559 101.386 1.45255 100.582 1.23487C100.23 1.03088 99.8763 0.857015 99.5417 0.777611C98.3378 0.483265 98.2117 -0.209473 97.3437 0.171123C95.5955 0.929575 95.9849 0.607849 94.1105 1.83041C93.9336 1.80577 92.956 2.00017 92.86 2.09327C92.3595 2.57517 91.9907 3.13922 91.4326 3.12827C90.4303 3.11047 90.7497 3.32952 89.613 3.92094C88.6519 4.43023 88.4613 4.79987 87.4096 5.2366C86.9434 5.43374 85.841 6.46874 85.3748 6.42082C85.095 6.59059 84.6288 6.20588 84.079 7.05059C83.9789 7.20255 83.3605 7.18612 82.7846 7.90624C82.7613 7.93773 82.1717 8.22523 82.0099 8.39088C81.0172 9.40535 81.5519 8.78243 81.1035 9.03434C80.4728 9.3944 79.805 9.78868 79.1332 10.0529C77.8004 10.5649 77.8566 10.9496 77.2149 11.3275C76.3648 11.8299 76.3099 12.1243 75.2212 12.5008C74.6343 12.7089 72.7065 14.2217 72.0702 14.3367C71.4573 14.4407 69.2031 16.5531 68.3173 16.9365C68.2474 16.9707 68.0349 17.1309 67.9746 17.1856C66.6719 17.3417 66.2304 18.2316 65.1143 18.7642C64.6042 19.0065 64.4918 19.3214 63.8624 19.4952C62.9684 19.7348 61.674 21.0532 61.3024 21.1778C60.5496 21.4379 59.3293 22.577 58.6369 22.5112C58.6259 22.5071 56.5554 23.6708 56.4978 23.7543C56.4402 23.8337 56.3676 23.8611 56.3703 23.9378C55.6079 24.5333 56.1016 23.4874 54.6413 25.2151C53.7061 26.3199 51.2819 27.0606 49.7393 28.7705C49.3965 29.1511 49.2498 28.2339 47.5523 30.7611C46.044 33.0009 44.6797 32.7148 42.7779 34.2303C41.3546 35.3625 40.4002 34.8737 38.2544 36.5851C36.7845 37.7556 35.1637 38.7591 33.5416 39.6216C32.9109 39.9611 32.3994 40.6881 31.7673 40.8962H34.7154V40.9003Z" fill="white"/>
<path fill-rule="evenodd" clip-rule="evenodd" d="M210.256 89.1099C141.59 90.9308 72.7887 90.9308 4.11487 89.1099C72.8079 88.0667 141.559 88.0667 210.256 89.1099Z" fill="white"/>
<path fill-rule="evenodd" clip-rule="evenodd" d="M200.94 112.649C196.942 110.144 193.744 106.851 191.357 102.784C195.012 105.625 198.207 108.915 200.94 112.649Z" fill="white"/>
<path fill-rule="evenodd" clip-rule="evenodd" d="M190.346 112.649C193.078 108.915 196.274 105.625 199.929 102.784C197.544 106.85 194.345 110.143 190.346 112.649Z" fill="white"/>
<path fill-rule="evenodd" clip-rule="evenodd" d="M31.6439 112.649C27.6456 110.144 24.448 106.851 22.0608 102.784C25.7163 105.625 28.9112 108.915 31.6439 112.649Z" fill="white"/>
<path fill-rule="evenodd" clip-rule="evenodd" d="M21.0502 112.649C23.7816 108.915 26.9778 105.625 30.6334 102.784C28.2475 106.85 25.0486 110.143 21.0502 112.649Z" fill="white"/>
</g>
<defs>
<clipPath id="clip0_52_1330">
<rect width="215" height="115" fill="white"/>
</clipPath>
</defs>
</svg>
