<svg xmlns="http://www.w3.org/2000/svg" width="191" height="50" fill="none"><path fill="#fff" fill-rule="evenodd" d="m3.588 50 .037-.005c4.166-.55 10.486-1.904 10.892-2.243 26.774-22.111-3.139 12.158 26.266-12.018 12.547-10.313 8.06-5.965 17.916 2.509 3.484 3.002 7.254-4.904 3.669-11.225-.105-.183 7.372-9.17 7.479-9.242-.09-.687 2.905 14.837 2.75 4.086 0-.077 2.159-7.554 3.531-7.643 2.965-.191-1.252-2.858 3.845-6.057 1.227-.768 2.918-4.668 3.217-5.431.05.077 7.794 7.05 8.971 8.483 1.278 1.552 8.069 3.138 7.818 8.588-.013.302 2.501 5.744 2.341 8.64-.136 2.479 6.706 5.434 9.212 11.666 3.213 7.987-.867-7.614 2.418-2.586 2.673 4.1 4.559 2.616 9.043 9.27.495.729 1.732 2.451 2.508 3.205h.649c-.052-.365-.272-1.039-.731-2.129-.744-1.768-1.545-8.325-2.518-8.928-1.672-1.031-8.115-5.236-8.093-6.592.105-6.503 8.423 4.638 6.226.047-4.212-8.796-2.365-3.082-4.708-4.375 1.067-1.353.344-2.226.641-3.049 1.61-.538 1.886.241-1.845-3.327-3.968-3.79 1.198-5.528-.96-10.306-.923-2.038 2.458-1.844 4.741.017 1.171.959 9.787 4.765 15.432 7.105 4.477 5.253 9.771 8.758 15.884 10.517-4.663-2.625-8.487-5.55-11.474-8.779.213.072.369.114.452.131 6.613 1.09 4.971 2.306 8.902 4.515 2.525.344 7.783 6.656 14.97 8.483 3.801.97 7.728 7.821 11.826 10.759 7.766 5.558 2.466 2.709 10.956 5.198a34.35 34.35 0 0 1 2.168.712H191c-4.595-1.581-7.467-5.536-10.748-6.678-6.461-2.238-9.748-7.075-13.927-11.818-4.411-5.012-10.676-4.468-12.965-7.252-1.574-1.916-10.77-6.83-13.291-7.66-.063-.059-.227-.094-.332-.166-.344-.233-.511-.233-.761-.372-.576-.33-.747.008-1.37-.005-.233 0-1.021-.499-1.046-.568-.069-.039-.374-.166-.417-.199-.392-.33-1.422-1.064-1.908-1.115-.345-.034-.956-.449-1.208-.53-.67-.221-.871-.726-1.83-.89-.751-.127-1.717-.377-2.373-.776.008-.08-7.978-2.323-8.412-2.437a3.843 3.843 0 0 1-.497-.199c-1.672-1.887-4.385-2.273-6.489-3.459-.97-.543-4.808 1.514-6.163 2.395-.711.466-1.091.458-1.557.851-.285.241-2.322 1.145-2.651.856-.287-.255-.099-.166-.387-.228-1.19-.263-.933.419-1.509.5-1.026.141-.589.293-1.111.474-.863.31-.329.526-1.235.509-.696-1.051-2.666-1.344-3.589-2.73-.203-.31-1.929-1.857-2.481-1.869-.696-.008-2.678-2.06-3.79-2.429a107.24 107.24 0 0 1-1.375-.979c-.01-.008-.986-.441-1.246-.679-.35-.322-1.609-.84-2.586-1.106-.429-.25-.859-.463-1.266-.56C81.014.519 80.86-.33 79.804.136c-2.128.929-1.654.535-3.935 2.031-.215-.03-1.405.208-1.522.322-.609.59-1.058 1.281-1.737 1.267-1.22-.022-.831.246-2.214.97-1.17.624-1.402 1.076-2.681 1.611-.567.241-1.909 1.508-2.476 1.45-.34.208-.908-.263-1.577.771-.122.186-.874.166-1.575 1.048-.028.039-.746.391-.943.593-1.208 1.242-.557.479-1.103.788-.768.441-1.58.924-2.398 1.247-1.622.627-1.553 1.098-2.334 1.56-1.035.615-1.101.975-2.426 1.436-.714.255-3.06 2.107-3.835 2.248-.746.127-3.489 2.714-4.567 3.183a3.268 3.268 0 0 0-.417.305c-1.585.191-2.123 1.281-3.481 1.933-.621.297-.758.682-1.523.895-1.088.293-2.663 1.907-3.115 2.06-.916.319-2.401 1.713-3.244 1.633-.013-.005-2.533 1.42-2.603 1.522-.07.097-.159.131-.155.225-.928.729-.327-.551-2.104 1.564-1.138 1.353-4.088 2.259-5.966 4.353-.417.466-.596-.657-2.661 2.437-1.835 2.742-3.496 2.392-5.81 4.247-1.732 1.386-2.893.788-5.505 2.883-1.789 1.433-3.761 2.662-5.735 3.718-.768.416-1.39 1.306-2.159 1.56h3.588V50z"/><path fill="#275490" d="M14.517 47.752c-.406.339-6.727 1.693-10.892 2.243l121.877.003c-.776-.754-2.013-2.476-2.508-3.205-4.484-6.654-6.37-5.171-9.043-9.27-3.285-5.028.795 10.573-2.418 2.586-2.506-6.232-9.348-9.187-9.212-11.666.16-2.896-2.355-8.338-2.341-8.64.251-5.451-6.54-7.036-7.818-8.588-1.176-1.433-8.921-8.406-8.971-8.483-.299.763-1.991 4.663-3.217 5.431-5.096 3.2-.879 5.866-3.845 6.057-1.372.089-3.531 7.566-3.531 7.643.155 10.75-2.84-4.773-2.75-4.086-.107.072-7.584 9.059-7.479 9.242 3.584 6.32-.185 14.227-3.669 11.225-9.857-8.474-5.37-12.822-17.916-2.509-29.405 24.176.507-10.093-26.266 12.018zm110.903.118c.459 1.09.679 1.763.731 2.129l61.869-.002-2.168-.712c-8.49-2.489-3.19.36-10.956-5.198-4.098-2.938-8.025-9.788-11.826-10.759-7.187-1.827-12.445-8.139-14.97-8.483-3.931-2.209-2.289-3.426-8.902-4.515a4.22 4.22 0 0 1-.452-.131c2.987 3.23 6.811 6.155 11.474 8.779-6.113-1.76-11.407-5.265-15.884-10.517-5.645-2.34-14.261-6.146-15.432-7.105-2.283-1.86-5.664-2.055-4.741-.017 2.158 4.778-3.008 6.517.96 10.306 3.731 3.568 3.455 2.789 1.845 3.327-.297.823.426 1.696-.641 3.049 2.343 1.292.496-4.421 4.708 4.375 2.197 4.591-6.121-6.55-6.226-.047-.022 1.356 6.421 5.561 8.093 6.592.973.603 1.774 7.16 2.518 8.929z"/></svg>